<svg width="58" height="57" viewBox="0 0 58 57" fill="none" xmlns="http://www.w3.org/2000/svg">
<path d="M57 41.8587C56.9984 40.0373 56.3918 38.2489 55.2424 36.6767C54.0931 35.1044 52.4421 33.8046 50.4586 32.9105L39.2017 27.8449C40.2755 27.1289 41.16 26.2489 41.8036 25.2562C42.4472 24.2635 42.8369 23.1782 42.95 22.0636L46.1377 20.7881C46.5983 20.6057 46.9857 20.3236 47.2559 19.9739C47.5262 19.6242 47.6685 19.2209 47.6667 18.8098V17.3296C47.6647 16.7432 47.3736 16.1811 46.8566 15.7655C46.4945 15.4738 46.0375 15.2691 45.5374 15.1746C45.0373 15.0801 44.5141 15.0996 44.0271 15.2309L43 15.5049V13.2295L44.1114 12.4674C44.495 12.2047 44.8028 11.8786 45.0137 11.5116C45.2247 11.1446 45.3337 10.7454 45.3333 10.3414V9.33333C45.3316 8.92975 45.2201 8.5313 45.0067 8.16562C44.7932 7.79995 44.4829 7.4758 44.0972 7.21567L44.1217 7.21007L42.7556 3.38427C42.4036 2.41096 41.6667 1.55513 40.6555 0.945007C39.6444 0.334883 38.4133 0.00332087 37.1467 0H20.8533C19.5867 0.00332087 18.3556 0.334883 17.3445 0.945007C16.3333 1.55513 15.5964 2.41096 15.2444 3.38427L13.8783 7.21009L13.9028 7.21569C13.5171 7.47582 13.2068 7.79996 12.9933 8.16563C12.7799 8.53131 12.6684 8.92975 12.6667 9.33333V10.3414C12.6663 10.7454 12.7753 11.1446 12.9863 11.5116C13.1972 11.8786 13.505 12.2047 13.8886 12.4674L15 13.2294V15.5049L13.9729 15.2309C13.4859 15.0997 12.9627 15.0802 12.4626 15.1747C11.9626 15.2692 11.5055 15.4739 11.1434 15.7655C10.6264 16.1811 10.3353 16.7432 10.3333 17.3296V18.8098C10.3315 19.2209 10.4737 19.6241 10.7439 19.9738C11.014 20.3235 11.4013 20.6056 11.8617 20.7881L15.05 22.0636C15.1631 23.1782 15.5528 24.2636 16.1964 25.2562C16.84 26.2489 17.7245 27.129 18.7983 27.8449L7.54142 32.9105C5.55789 33.8047 3.90695 35.1044 2.75757 36.6767C1.60819 38.249 1.00164 40.0373 1 41.8587V56H57V41.8587ZM49.4956 34.6322L41.3092 42H37.1667V46.3841L33.2155 51.1255L34.7923 42.2962L42.1766 31.3253L49.3147 34.5374C49.3781 34.566 49.4331 34.6027 49.4956 34.6322ZM22.8237 30.2276C23.9026 30.8475 25.1191 31.2975 26.4082 31.5536L26.3249 31.6203C25.6687 32.1454 25.3 32.8575 25.3 33.6C25.3 34.3425 25.6687 35.0546 26.3249 35.5797L26.4501 35.6798L24.2139 39.8539L17.8574 30.41L20.8348 29.0702L22.8237 30.2276ZM37.1652 29.0703L40.1426 30.4101L33.7861 39.8539L31.5499 35.6798L31.6751 35.5797C32.3313 35.0546 32.7 34.3425 32.7 33.6C32.7 32.8575 32.3313 32.1454 31.6751 31.6203L31.5917 31.5536C32.8809 31.2975 34.0974 30.8475 35.1763 30.2276L37.1652 29.0703ZM28.1752 34.4203L27.9746 34.2599C27.7563 34.0847 27.6337 33.8474 27.6337 33.6C27.6337 33.3526 27.7563 33.1153 27.9746 32.9401L28.1752 32.7797C28.3941 32.6049 28.6907 32.5067 29 32.5067C29.3093 32.5067 29.606 32.6049 29.8249 32.7797L30.0254 32.9401C30.2438 33.1153 30.3664 33.3526 30.3664 33.6C30.3664 33.8474 30.2438 34.0847 30.0254 34.2599L29.8249 34.4203C29.6059 34.595 29.3093 34.6931 29 34.6931C28.6908 34.6931 28.3942 34.595 28.1752 34.4203ZM25.5346 42.1269L28.5362 36.5238C28.8425 36.5721 29.1576 36.5721 29.4639 36.5238L32.4655 42.1269L30.3217 54.1333H27.6783L25.5346 42.1269ZM44.7654 17.0019C44.8303 16.9846 44.8993 16.9799 44.9669 16.9882C45.0345 16.9964 45.0987 17.0174 45.1542 17.0494C45.2097 17.0814 45.2548 17.1235 45.286 17.1722C45.3171 17.2209 45.3333 17.2748 45.3333 17.3296V18.8098C45.3337 18.8739 45.3115 18.9369 45.2693 18.9914C45.2271 19.046 45.1666 19.0899 45.0946 19.1183L43 19.9563V17.4728L44.7654 17.0019ZM40.6667 12.3709L36.552 15.1926C35.9174 15.6274 35.1094 15.8664 34.2739 15.8667H23.7261C22.8907 15.8665 22.083 15.6274 21.4486 15.1926L17.3333 12.3708V12.1333H40.6667V12.3709ZM43 10.2667H15V9.33333C15.0004 9.0859 15.1234 8.84869 15.3422 8.67372C15.5609 8.49876 15.8574 8.40032 16.1667 8.4H41.8333C42.1426 8.40032 42.4391 8.49876 42.6578 8.67372C42.8766 8.84869 42.9996 9.0859 43 9.33333V10.2667ZM17.4877 3.89739C17.6988 3.31332 18.1409 2.79972 18.7477 2.4336C19.3545 2.06748 20.0933 1.86856 20.8533 1.86667H37.1467C37.9067 1.86856 38.6455 2.06748 39.2523 2.4336C39.8591 2.79972 40.3012 3.31332 40.5123 3.89739L41.4534 6.53333H16.5466L17.4877 3.89739ZM12.6667 18.8098V17.3296C12.6666 17.2748 12.6829 17.2209 12.714 17.1722C12.7452 17.1235 12.7903 17.0814 12.8458 17.0494C12.9013 17.0174 12.9655 16.9964 13.0331 16.9882C13.1007 16.9799 13.1697 16.9846 13.2346 17.0019L15 17.4728V19.9564L12.9048 19.1182C12.833 19.0898 12.7727 19.0458 12.7306 18.9913C12.6885 18.9367 12.6663 18.8739 12.6667 18.8098ZM17.3333 21.3979V14.8293L19.9304 16.61C20.9877 17.3346 22.3339 17.733 23.7261 17.7333H34.2739C35.6662 17.7329 37.0126 17.3345 38.0701 16.61L40.6667 14.8295V21.3979C40.6647 22.4281 40.3591 23.4434 39.7747 24.3614C39.1904 25.2795 38.3437 26.0744 37.3034 26.6816L33.8034 28.7182C32.4088 29.5327 30.7267 29.9716 29 29.9716C27.2733 29.9716 25.5912 29.5327 24.1966 28.7182L20.6966 26.6816C19.6563 26.0744 18.8096 25.2795 18.2253 24.3614C17.6409 23.4434 17.3353 22.4281 17.3333 21.3979ZM15.8234 31.3253L23.2077 42.2962L24.7845 51.1256L20.8333 46.3841V42H16.6908L8.50443 34.6322C8.56688 34.6027 8.62193 34.566 8.68526 34.5374L15.8234 31.3253ZM3.33333 41.8587C3.33609 40.7159 3.63022 39.5855 4.19774 38.5367C4.76525 37.4879 5.59422 36.5427 6.63395 35.759L15.6426 43.8667H18.5V46.9492L24.4868 54.1333H15V47.6H12.6667V54.1333H3.33333V41.8587ZM54.6667 54.1333H45.3333V47.6H43V54.1333H33.5132L39.5 46.9492V43.8667H42.3574L51.366 35.759C52.4058 36.5427 53.2347 37.4879 53.8023 38.5367C54.3698 39.5855 54.6639 40.7159 54.6667 41.8587V54.1333Z" fill="#F8D7A4" stroke="#F8D7A4"/>
</svg>
