<svg width="56" height="47" viewBox="0 0 56 47" fill="none" xmlns="http://www.w3.org/2000/svg">
<path d="M45.1922 0C43.4103 0 12.7751 0 10.8108 0L0 13.3763L28.1161 47L56 13.3724L45.1922 0ZM15.3706 14.8458L23.292 36.3188L5.33626 14.8458H15.3706ZM18.8214 14.8458H37.1913L28.0694 39.9151L18.8214 14.8458ZM40.6375 14.8458H50.6833L32.7821 36.4342L40.6375 14.8458ZM43.5338 2.96916L50.7329 11.8766H40.6397L37.4185 2.96916H43.5338ZM33.9745 2.96916L37.1957 11.8766H18.8073L22.0284 2.96916H33.9745ZM12.469 2.96916H18.5843L15.3632 11.8766H5.26994L12.469 2.96916Z" fill="#F8D7A4"/>
</svg>
