<svg width="16" height="12" viewBox="0 0 16 12" fill="none" xmlns="http://www.w3.org/2000/svg">
<path d="M1.94142 11.8123H3.13309V3.54351H1.94142C1.2834 3.54351 0.749756 4.07248 0.749756 4.72476V10.631C0.749756 11.2833 1.2834 11.8123 1.94142 11.8123ZM15.0498 10.631V4.72476C15.0498 4.07248 14.5161 3.54351 13.8581 3.54351H12.6664V11.8123H13.8581C14.5161 11.8123 15.0498 11.2833 15.0498 10.631ZM11.4748 3.54351V1.77163C11.4748 0.793039 10.6745 -0.000244141 9.68726 -0.000244141H6.11226C5.12503 -0.000244141 4.32476 0.793039 4.32476 1.77163V11.8123H11.4748V3.54351ZM9.68726 3.54351H6.11226V1.77163H9.68726V3.54351Z" fill="#F8D7A4"/>
</svg>
