<svg width="18" height="14" viewBox="0 0 18 14" fill="none" xmlns="http://www.w3.org/2000/svg">
<path fill-rule="evenodd" clip-rule="evenodd" d="M7.875 14.0002C7.875 14.0002 6.75 14.0002 6.75 12.8752C6.75 11.7502 7.875 8.37525 12.375 8.37525C16.875 8.37525 18 11.7502 18 12.8752C18 14.0002 16.875 14.0002 16.875 14.0002H7.875ZM12.375 7.25025C13.2701 7.25025 14.1286 6.89467 14.7615 6.26173C15.3944 5.6288 15.75 4.77035 15.75 3.87524C15.75 2.98014 15.3944 2.12169 14.7615 1.48876C14.1286 0.855824 13.2701 0.500244 12.375 0.500244C11.4799 0.500244 10.6215 0.855824 9.98851 1.48876C9.35558 2.12169 9 2.98014 9 3.87524C9 4.77035 9.35558 5.6288 9.98851 6.26173C10.6215 6.89467 11.4799 7.25025 12.375 7.25025ZM5.868 14.0002C5.70123 13.649 5.61805 13.264 5.625 12.8752C5.625 11.3509 6.39 9.7815 7.803 8.69025C7.09773 8.47294 6.36294 8.36667 5.625 8.37525C1.125 8.37525 0 11.7502 0 12.8752C0 14.0002 1.125 14.0002 1.125 14.0002H5.868ZM5.0625 7.25025C5.80842 7.25025 6.52379 6.95393 7.05124 6.42648C7.57868 5.89904 7.875 5.18367 7.875 4.43775C7.875 3.69182 7.57868 2.97645 7.05124 2.44901C6.52379 1.92156 5.80842 1.62524 5.0625 1.62524C4.31658 1.62524 3.60121 1.92156 3.07376 2.44901C2.54632 2.97645 2.25 3.69182 2.25 4.43775C2.25 5.18367 2.54632 5.89904 3.07376 6.42648C3.60121 6.95393 4.31658 7.25025 5.0625 7.25025Z" fill="#F8D7A4"/>
</svg>
