<svg width="94" height="14" viewBox="0 0 94 14" fill="none" xmlns="http://www.w3.org/2000/svg">
<path fill-rule="evenodd" clip-rule="evenodd" d="M7.54312 12.1677L4.36476 13.7744C3.69535 14.1128 2.86739 13.8653 2.51546 13.2216C2.37532 12.9653 2.32696 12.6717 2.37787 12.3863L2.98488 8.98318L0.413536 6.57306C-0.12803 6.06545 -0.139111 5.2318 0.388785 4.71105C0.598996 4.50368 0.874436 4.36873 1.17246 4.32709L4.72597 3.83058L6.31515 0.734296C6.64986 0.08217 7.47097 -0.185577 8.14916 0.136267C8.41922 0.264426 8.63781 0.474616 8.77109 0.734296L10.3603 3.83058L13.9138 4.32709C14.6622 4.43166 15.1808 5.09984 15.072 5.8195C15.0287 6.10607 14.8884 6.37093 14.6727 6.57306L12.1014 8.98318L12.7084 12.3863C12.8362 13.1031 12.3356 13.7838 11.5902 13.9067C11.2934 13.9557 10.988 13.9092 10.7215 13.7744L7.54312 12.1677Z" fill="#F8D7A4"/>
<path fill-rule="evenodd" clip-rule="evenodd" d="M27.2716 12.1677L24.0933 13.7744C23.4239 14.1128 22.5959 13.8653 22.244 13.2216C22.1038 12.9653 22.0555 12.6717 22.1064 12.3863L22.7134 8.98318L20.1421 6.57306C19.6005 6.06545 19.5894 5.2318 20.1173 4.71105C20.3275 4.50368 20.603 4.36873 20.901 4.32709L24.4545 3.83058L26.0437 0.734296C26.3784 0.08217 27.1995 -0.185577 27.8777 0.136267C28.1477 0.264426 28.3663 0.474616 28.4996 0.734296L30.0888 3.83058L33.6423 4.32709C34.3907 4.43166 34.9093 5.09984 34.8005 5.8195C34.7572 6.10607 34.6169 6.37093 34.4012 6.57306L31.8299 8.98318L32.4369 12.3863C32.5647 13.1031 32.0641 13.7838 31.3187 13.9067C31.0219 13.9557 30.7166 13.9092 30.45 13.7744L27.2716 12.1677Z" fill="#F8D7A4"/>
<path fill-rule="evenodd" clip-rule="evenodd" d="M46.9997 12.1677L43.8213 13.7744C43.1519 14.1128 42.3239 13.8653 41.972 13.2216C41.8319 12.9653 41.7835 12.6717 41.8344 12.3863L42.4414 8.98318L39.8701 6.57306C39.3285 6.06545 39.3174 5.2318 39.8453 4.71105C40.0555 4.50368 40.331 4.36873 40.629 4.32709L44.1825 3.83058L45.7717 0.734296C46.1064 0.08217 46.9275 -0.185577 47.6057 0.136267C47.8758 0.264426 48.0944 0.474616 48.2276 0.734296L49.8168 3.83058L53.3703 4.32709C54.1187 4.43166 54.6373 5.09984 54.5286 5.8195C54.4852 6.10607 54.3449 6.37093 54.1292 6.57306L51.5579 8.98318L52.1649 12.3863C52.2928 13.1031 51.7921 13.7838 51.0467 13.9067C50.7499 13.9557 50.4446 13.9092 50.178 13.7744L46.9997 12.1677Z" fill="#F8D7A4"/>
<path fill-rule="evenodd" clip-rule="evenodd" d="M66.7287 12.1677L63.5503 13.7744C62.8809 14.1128 62.0529 13.8653 61.701 13.2216C61.5609 12.9653 61.5125 12.6717 61.5634 12.3863L62.1704 8.98318L59.5991 6.57306C59.0575 6.06545 59.0464 5.2318 59.5743 4.71105C59.7845 4.50368 60.06 4.36873 60.358 4.32709L63.9115 3.83058L65.5007 0.734296C65.8354 0.08217 66.6565 -0.185577 67.3347 0.136267C67.6048 0.264426 67.8234 0.474616 67.9566 0.734296L69.5458 3.83058L73.0993 4.32709C73.8477 4.43166 74.3663 5.09984 74.2576 5.8195C74.2142 6.10607 74.0739 6.37093 73.8583 6.57306L71.2869 8.98318L71.8939 12.3863C72.0218 13.1031 71.5211 13.7838 70.7757 13.9067C70.4789 13.9557 70.1736 13.9092 69.907 13.7744L66.7287 12.1677Z" fill="#F8D7A4"/>
<path d="M86.6823 11.7214L86.4567 11.6074L86.2311 11.7214L83.0528 13.3282C82.6152 13.5494 82.0855 13.38 81.8677 12.9818C81.7818 12.8246 81.7529 12.6465 81.7837 12.4741L82.3907 9.07098L82.4383 8.8039L82.2404 8.61837L79.669 6.20825C79.3342 5.8944 79.328 5.38808 79.6535 5.067L79.3024 4.71105L79.6535 5.067C79.7856 4.9367 79.9615 4.84934 80.1552 4.82228L83.7087 4.32577L83.9658 4.28984L84.0844 4.05889L85.6736 0.962607C85.8801 0.560251 86.4044 0.37731 86.8484 0.587982L87.0627 0.136267L86.8484 0.587982C87.0217 0.67025 87.158 0.803212 87.2398 0.962607L88.829 4.05889L88.9475 4.28984L89.2047 4.32577L92.7582 4.82228C93.2489 4.89085 93.5557 5.31796 93.4912 5.74479C93.465 5.91792 93.3798 6.0813 93.2443 6.20825L90.673 8.61837L90.4751 8.8039L90.5227 9.07098L91.1297 12.4741C91.2055 12.8992 90.9105 13.3329 90.4224 13.4134C90.2295 13.4452 90.0317 13.4147 89.8606 13.3282L86.6823 11.7214Z" fill="#F8D7A4" stroke="#F8D7A4"/>
</svg>
