<svg width="58" height="56" viewBox="0 0 58 56" fill="none" xmlns="http://www.w3.org/2000/svg">
<path d="M33.4624 48H49.4731V52H33.4624V48Z" fill="#F8D7A4"/>
<path d="M33.4624 40H57.4785V44H33.4624V40Z" fill="#F8D7A4"/>
<path d="M33.4624 32H57.4785V36H33.4624V32Z" fill="#F8D7A4"/>
<path d="M38.5638 18.434L29.4597 0L20.3556 18.434L0 21.39L14.7298 35.74L11.2515 56L25.457 48.538V44.018L16.5691 48.688L18.6745 36.416L19.0307 34.342L17.5237 32.876L8.60175 24.182L20.932 22.392L23.0134 22.09L23.946 20.204L29.4597 9.038L34.9734 20.204L35.906 22.09L37.9874 22.392L52.9054 24.562L53.4757 20.6L38.5638 18.434Z" fill="#F8D7A4"/>
</svg>
